
<svg xmlns:svg="http://www.w3.org/2000/svg" xmlns="http://www.w3.org/2000/svg" width="600" height="800" viewBox="0 0 600 800" version="1.1"><g transform="translate(0,-252.36216)"><path d="m72.2 1006.7c1.3-11.1 2.4 12.3 0 0zm7.4 1.3C73 984.1 66.2 964.8 66.7 935.5 68.1 924.6 61.2 867.3 68.7 900.5 69 868.8 55.6 838.3 58.7 806.1 58.6 776.7 60.7 747.3 51.9 719 38.1 701.8 60.9 684.8 65.2 673.5 78.4 668.7 99.4 652.2 119.6 656.9 98.9 654 153.6 643.5 163.7 644.2c21.8-2.1 41.6-10.3 55.4-12.6 9.4-11.4 19.1-35.5 2.8-54.8-9.6-19.1-2.4-67.6-18.6-71.9 1 23.5 7.3 36.3-1.7 27.4 7.5 15.9 5.9 23.2-4.8 6.1-13.5-23.9-5.9-55.3-5.7-67.1-8.2-30.8 1.6-61.3 18.4-78.5 4.4-13.4 44.8-17.8 25.9-24.3-9.7 9.7-35.4 18.7-13.9 1.5 16.2-6 32.8-13 33.1-18.6 21.7-19.9 49.5-8.6 71.5-7.6 14.6-8.7 1.3-29.3-3.8-4.7-27.4-7.9 16.5-26 14.8-34.3 10.4-2 15.6-21.1 23-7.5 17 5.5 24.8 9.2 24.2-15.4-7.4 24.5 18.3 32 32.7 38.7 19.1 14.9 9.4 39.5 28.5 51.9 14.7 33.3 28.7 67 35.1 103.1 0.5 14 22.3 13.7 15.7 36.7 0.4 18.4 5.3 25.2 10.4 34.6-12.9-4.5-16.2-54-22.7-41.4 6.4 13.9 7.7 35.8 1.5 8.5-7.1-17.7 5.5 32.4-3.3 2.6-3-10-2.6 10.9-3.9-8.7-4.1-18.4 1.1 47.8-3.3 7.3-1.4-35.8-4.6 39.7-7.4 0.8 3.2-30.7-14.2 7.9-14.7 2-1.8 7.4-16.5 14.6-2.3-1.1 7.8-14.5 19.4-35.6 24.1-36.9-22.2 0.1-23.6-50.4-27-64.1-0.2-12.5-13-48.8-8.5-17-6.3 11.4-10.6 23-14.3 34.3-3.9-22.6-3.1 22.6-12.5 9.8-1.6 23.3-15.5 46.3-7.5 72.1-2.9 25.3 4.6 46.8-0.9 68.3-4.9-2.4 0.7-52.9-7.1-31.7 1.4 16.9-4.2 37.4-4.1 7.3 3.2-11.8-5.6-47.6 6-29.5 9.8-6.8-13.1-15.7-9.7 3.9-5.3 13.9 1.6 54-10.9 54.4-0.4-11.4 9.6-53.8 2.6-48.2-7.3 13-11.9 71-11.4 30.4-3.6-10.7 11.1-47 5.5-19.9 9.9-19 12.4-28.5-4.4-13.9-7.8 6.2-11.2 35.1-10.8 9.2 0.5-13-11.4 41.6-10.3 11.3 2.8-18.5 8.3-10.5 14.3-32.7 7.5-12.3 2.2-36.5-1.6-10.8 2.9-34-9.9-62-32.7-86.3-21.2-22.7 24.1 23.3 2.9-2.9-13.1-10.9-18.6-6.2-1.7-15.6 3.3-16.8-7.2 9.9-21.7 6.4-11 7.3-57-5-70.7 21.6-13.4 8.1-34.5 46.2-19 42.1-16.5 27 1.6 49.2 1 79.7 0.6 38.9 49.1 51.6 80.2 44.4 17.7-7.3 37.6-16.5 41.3-20.9 10.1-24.9-6 55.3 8.1 18.5 0.8-13.4-1.2-34.6 3.9-16.9 2.5-14.8-0.1 22.4 1 15.9-8.4 13.7-17.3 34.8-9.7 36.4 0.4 21.3-12.3 46.8 0.6 60.1-3.8-30.2 12.7 19.2 16.3 33.5 6.9 11.8 9.4 39.1 0.2 18.6-6.4-15.5 2.4 11.3-9.4 0 15.2 20-0.9 15.2-7.8 12.9-11.6-10.8 14.6-0.4 0.9-14.5-4.2 4.4-32.8 2.7-36.1 24-18.4 9.9 13.2 8.6 7.1 2.2 8.9-1.2 29.1-20.4 23.1-5.7-10.9 4.8-7.1 25.5-17.7 6.1 11.4 19.7-1.9 21.8-9.2 11.4 0.1 16.9-18-11.9-15.5 6.7-22.1 26.8-40.7-22.9-58.4-11.6-6.1 4.8-15.3 10.2-16.8 0 2.2-3.9 20-19.9 30.5-21.4-10.3-0.4-19.9 5.2-20.7-15.2-8.8-21.1-19.3-45.4-20-69.9-14.6-9.6-8.1-43.4-30.3-23.9-28.3-6 19.1 23.1 2.1 33.3-9.3 8 5.3 13-5.9 15.1 12.5 5.1-2.7 12.5 10.6 22.5-8-2.3-1.2 16.5-7.5 22.5 0.2 21.7 8.7-15.4 8.7-11.9 3.7 1.3 11 6.4 11.5-5.6-0.4-8.4 7.7 1.8 6.9-8.4 6.9 10 7.7 18.5 0.5 36.1-5.4 11.8-12.3 24.4-7.5 28.8-1 13.1 10.3 26.4 12.9 37.2-4.2 3.3 25.4 20.3 3.8 11.8-1.9 7.2 15.3 24.9 22.8 9.1 12.9 5.2-17.2-44.2 0.4-40.9 13.2 15.1 29.8 12.5 31.4 36.7 8.7 14.1 28 30.9 39 26.3 5.7-1.2 16.3-4 13.5-17.2 6.6-4.2-4.4-13.8-11.5 0.3-14.9 17.2-12.7-23-3.8-14 10.5-7.4 4.2 10.9 14.5-1.3 6.2-12.4 2.7-26.7 7.6-24.4 11.8-9.9 21.7-2.9 20.3 1.4 2.1-13.4 8.7 9.3 10.9 6.9-3.2 21.7 6.9-10.2 15.9-8.2 9.4 4.4 20.9 38.5 24 59 5.8 12.4 3.4 27.3-5.1 31.6-0.5 9.9 20.1-17.6 14.6-13.7 11.8-18.7-0.9 16.2-11.9 19.4-1.4 6.3-11.1 4.1-11 19.7-12.7 26.1 17.9 53.2 18.4 81.8-0.6 18.2-7.8-28.8-12.3-35.8-17.3-19.1-9.8-46.3-14.3-66.5-17.9-16.4-54.8-8-64.6-29-6.1 0.3 1.6 23.1-11.9 20.5 1.6 15.3-23.7 10.8-31.1 18.4-13.7 12.1 22.4-10.8 4.6 3.4 16.5-4.1 34.7-19.7 37.3-10.2 12.8-4.1-28.8 18 0.8 20.5-6.7 9.4-14-7.2-13.3-12.1-19-4.8-31.3 22.2-37.5 19.7-11.9-8.4-33.3 9.3-49.8 5.5-35-6.9-42.4 21.2-53.8 48.2-5 17.4-18 36.7-7.5 9.5 5.9-14.7 27.5-48.1 19.8-52.8-15.3 4.5 3.8-2.2-9.4-6.4 24.6-10.5-29.4-9.2-11.4-31.8-6.6-16.5-20.5-32.7-18-54.1-0.3 32-14.1 64.6-3.4 95.5 1 18 13.7 53.6 5 62.6-4.6-29.1-6.5-60-15.6-87.6 11.7-29.6 8.6-68.2 6.6-101.3 11.3-28.7-18-21.9-25.7-45.1-7.2-18.5-24.1-24.2-35.9-42.1-6.3 8.6-7.4 43.1-4.2 60.4 0.5 14.5 4.7 40.3-1.6 11 2.1 25.6 8.9 52.4 10.8 78.5 3.1 24.1-5.8 49.1-0.4 62.6-5 19 24.9 58.5 9 65l-1-1.8 0 0zm58.4-22.8c-2.6-3.6-2.6 3.6 0 0zm75.5-51.5c18 0.7 55.2-18.5 17.1-12.7-13.5-8.8-40.1-2.3-35.8-10.2-11.9 1.8 12.4-9.7-6-3.6-9.3 3.3-17-1.7-9 2.7-13.2-6.8-23.1-9.3-20.6 7.4 7.3 7.8 2.1 3.2 15.1 9.3-2.7 13.8 12.8 7.3 26.5 8.5l5.6-0.6 7-0.8 0 0zm-23.7-19c-22.7-0.4 4.9-7.3 0 0zm12.7-0.4c-1.2-3.9-3.6 3.8 0 0zm106.5-8c-2.5-3.6-1.2 3.7 0 0zM169.2 902.2c-10.8-7.5 5.3 7.4 0 0zm228.2-3.5c-2.6-5.4-0.9 7.3 0 0zm-4.3-5.8c-4.4-12.5-10.3-32-25.4-24.8 20.6 4.6-6.2 1.3 11 11.6 16.7 18.3-34.4-0.5-4.6 11.6 10.5-0.4 25.2 15.8 19 1.6zm-229.6 4.1c-2.3-5.3 13-6.6-0.5-14.7-10.8-8-5.3-6.4-9.8-16.7-3.3-16.2 1.8-19.2 3.1-35.9 0.6-3.9 1.6-19-3.3-15.4-6.7-18.5 0.7-8.8-9.4 1.9 2-32.1-13.4 59.8-4.7 12.7 4.4 19.9 0 51.5 17.4 67 2.2-17.2 5.4 10.1 7.2 1.2zm-14.5-38.8c2.9-1.9 2.3 3.4 0 0zm-1-11c2.9-1.9 2.3 3.4 0 0zm3-7c2.9-1.9 2.3 3.4 0 0zm-1-10.9c2.5-3.6 1.2 3.7 0 0zm31.6 64.1c-9.8-7.5-12.8-9.3-4.8 3.1 1.1 0.5 6.1-0.6 4.8-3.1zm180.4-7.6c-13.2-8.1-13.9-1.8 0 0zM226.6 869.8c-6.4-6.4-2.7-9.6-13-14.7 4.4 10 5.8 3-2.4 18.2 10.7-4.3 13.5 12.6 15.4-3.5l0 0zm-5.5 0.4c-20.2-3.7 10.6-3.8 0.4-2.4 0 0.6 0.9 5.6-0.4 2.4zm-4.5 6c-3.6-3.8-1.2 3.9 0 0zm113.9-1.5c-20.4-16.7-14.8 0.5 0 0zm36.8-10.4c7.9-14.6-6.5-2.4 0 0zM194.2 852.8c-6.5-13.5-1.3 12.8 0 0zm158.2 0.4c9.6-26.9-19.1 9.4 0 0zm-199.4 0.6c-0.9-5.3-2.4 5.2 0 0zm60.7-2.4c0.5-9.3-17.2-16.9-3-4.5-6.2-6 4.2 14.2 3 4.5l0 0zm179.6 0.9c-2.1-21.1-11.2 5.9 0 0zm-150.3-3c-3.5-3.5-4.6 3.9 0 0zm-31-8.5c-6.5-4.9 2.1 5.2 0 0zm-78.3-14.7c-1.4 2.9 1.4 14.4 0 0zm193.3 6.1c-1.6-5.4-1.4 6.8 0 0zm-143-3.8c-1.2-3.7-2.5 3.6 0 0zm-1.5-2.5c5.4-8.3 1.3-28-11.9-37.9-2.5-11.9-7.1-17.9-4.2 2 5.9 4.5 14 24 11.6 27.2-6.1-5 3.8 15.7 4.5 8.6zm-0.5-8.5c2.5-3.6 1.2 3.7 0 0zm-4.5 6c4.1-3.5-9.2 2.7 0 0zm-19.9-13.6c4.3-6.1 19.8 0.4 8.7-11.3-4.4-4.3 2.7-45.3-14.6-28.3-0.7 7-4.4 14.6 2.3 36-0.6 0.2 5.2 8.5 3.7 3.6zm16.9-1.6c-1.4-11.1-2.3 10.7 0 0zm210.5 1.7c2.5-8.2-7.1 6.6 0 0zm-247-0.4c-4-15.6 7.7-0.8 0.8-15.7-6.5-1.4-4 17.8-0.8 15.7zm-1.5-12c-0.2-4.7 6.5 4.1 0 0zm-75.9 0.7c-1.7-1.7 0.9 5.6 0 0zm219.6-7c5.6-5.3-22.9-6.7-2.3 3l2.3-3 0 0zm-160.3-0.9c-3.9-3.7-3.9 3.7 0 0zm21-2.3c-4.7-0.7 0 7.1 0 0zm153.7 2.5c12-13-1.4-31.5 1.8-12.1 1.2 2.1-7.5 16-1.8 12.1zm-158-2.9c11.2-17.6-25.6-20-29.7-41.7 16.7 4.9-26.3-24 0.2-13.1-10.5-17.7-38.6-20.8-45.4-44.9-22.6 20.8 18.4 48.2 31 66.6 13.1 10.1 29.8 33.9 43.9 33.1zM93.7 729.8c0.6-5.5 3.5 5.4 0 0zm175.4 53.4c-2.7-3.5-2 5.4 0 0zm0.5-8.1c-6 3.1-0.7 9.7 0 0zm23.5 3.9c-2-12.7-2.9 8.5 0 0zm-31-2.7c-20-6.2 3.6 6.1 0 0zm32-3.7c-1.6-6.9-1.2 8.4 0 0zm-50.5 0.7c-1.2-3.7-2.5 3.6 0 0zm38.5-1.6c27.2-5.3-10.8-14.9-0.9 2l0.9-2 0 0zm-133.5-3.4c-1.5-3.8-3.1 3.2 0 0zm17.5 0c-2.6-3.6-2.6 3.6 0 0zm88-1c-1.2-3.7-2.5 3.6 0 0zm48.8-4.2c-3-7.8-0.8 13.9 0 0zm7.6-1.1c7.3-33.9-10.2 10.1 0 0zm-13.6 0.4c-4.5-10.7-2.2 9.9 0 0zm-23.1 0.7c4.4-11-10.6 6.3 0 0zm-18.7-1.2c1.6-5.6-6.2 5.8 0 0zm101-2c-4.6-20.5-5.2 5.8 0 0zm-77-3c5-10-32.5-2.8-3-2.7-0.3 3.6-0.5 6 3 2.7zM92.1 755.9c-3.2-4.6-3.5-0.8 0 0zm209-0.6c-3.9-3.7-3.9 3.7 0 0zm-50.5-3c-2.2-3.6-5.2 3.6 0 0zm42.2-2.4c-5-3.7-7 4.9 0 0zm14.6-3.7c5-7.7 25.1-21.4 12.7-18.3 3.4-14.1 20.5-47.2 18.6-72.1 3.1-11.2-1.2-28.1 0.9-36.1-7.2 22.3 0-3.4-18.7-0.8 2.5-14.7-6.1 0.4 0.2-19.1-12.4 3.4-47.9 13.2-16.8 7.8 33.4-1.1-24.5 9.9 7.7 10.6 9.6 4.3-12.2 5.8 2.3 9.8-19.1 11.9 14.7 7.6-7.2 17.3-9.6 6-35.8-9-45.7 5-9.9-1.7 12.6-7.8-5.8-9.2 10.6-4.8-9.4-12.4 12.3-13.8-11.8-6.1-8.5-4.1-0.8-10-16.3-4.8-9.3-6.2-3.4-12.8-15.3-0.8-38.8-25.5-29.9 4.3 7.9 18.6-24.6 30.4-5.4 34.4 2.4 17-0.2 35.2 9.7 51.9 9 9.5 5.8 20.9 5.8 27.2 12.7 5.6 9.7 34.8 27.8 15.6 8.8-6.9-35.2-13.4-2.5-14.6 5.4-5.5-38.4-12.2-8.7-15.7 21.2-6.3 16.6-13.4-3.1-16.2 10 0.4 13.6-17-2.9-12.5-4.9-15.5 2.3-16.8 7.3-9.5 12.4-4-8.9-9.6 6.1-14-31.7-2.6 14.9-4.3 23.6-4.3 11.6-4.5 30.6 1.9 8.2 3.9 24.5 1.1 18.6 14.4-2.4 14.8-11.4 10.4-48.3-4.3-23.6 13.4 6.9-3.9 30 0.9 31.3-13.2 29.6-3.1-16.3 19.1 13.9 18.6-15.6 5.2-30.2-6.4-48.4 1.4-11.8 4.3 17.3 6.4 12.1 13 9.4-9.7 54.2-13.9 17.6-4.4-3.8 5.6 42.2 14 9.7 12.5-12.5-5.7-14.9-11.1-24-1.4-8.3-11.6-43.2 7.4-14.6 3.4 4.5 18.7 42.6-13.5 14.9 5.4-13.5 12.3 7.8 0.8 28.2-5.1 0.7 5.8-24.2 10.2-1.9 14.4-0.2 7.2-27 9-4.6 13.9-8.5-4.4-38.7-2.3-32.2 6.9 10.7-7.7 20.4 5.5 31.8-2.3zm-54.3-97.9c-3.2-12.3 7.3 11.7 0 0zm71.4 100.2c24.3-0.5 24.2-30.1 19.6-42.9-2.3-1.8-22.3 38.4-19.6 42.9zm-5.1-3.4c0.5-23.4-6.5 10.6 0 0zm-72.3-0.2c-7-11.8-9-0.6 0 0zm103.4-5.1c4.4-9.1-9.7 4 0 0zm-105.3-4.6c-3.2-8.2 2 12.4 0 0zm116.7-0.5c-4.9-7.8 3.3 13.5 0 0zm-75.4 2.7c-3.8-6.9-13.1 4.7 0 0zm17.2-7.6c8.7-3-17.4-7.7-18.6 2-39.7-16.9 3.4 14.6 18.6-2zm52.6 4.3c-3.6-2.1 2.5 5.2 0 0zm-121.2-0.4c-4-16.9-8 3.3 0 0l0 0zm-51.5-3.4c-1.2-3.7-2.5 3.6 0 0zm167.5-0.5c-6.2-5.8 1.6 5.6 0 0zM63.1 726c-5.3-15.6-2.3 6.5 0 0zm287.6-0.2c1.8-6.6-4.4 3.6 0 0zm-111.6-3c-14.1-19.6-6.1 7.7 0 0zm91.9-7.2c-5.8-11.2-1.3 18 0 0zm25.1 0.9c-8.8-13.1 3.4 12.5 0 0zm-254.6-1c-9.6-13.5-4.2 1.5-5.2 0.2 0.7 2.3 4.9 4.5 5.2-0.2zm125.6-4.4c-2.9 3.9 3 10.4 0 0zm8.4 0.3c-4.2-3.5-1 3.5 0 0zm-136-3c-6.5-3.9-1 3.9 0 0zm238-6c-3.8-19.4-6 21 0 0zm13-1.4c-6.6-12.1 4.9 18.4 0 0zm-118.4-0.7c-11.7-17.4-6.3-8-1.7 3.5 0.7-0.5 4.6-2.8 1.7-3.5zm-8.1-2.3c-7.2-15 2.7 16.6 0 0zm116.7-5.7c-1.7-1.7 0.9 5.6 0 0zm-121.2-5.9c-2.3-19.1-7 12.7 0 0zm5.5-8.4c-3-3.3-3 1.4 0 0zM76.6 672.3c20.4-3.4-1.3-11.3-0.9 1l0.9-0.3 0-0.7zm144.7-0.8c-1.3-9.2-4.5 5.2 0 0zm70.1-6c21.4-9.6-11.5-9.2-17.1-8.2-12.9 4.5 14 16 17.1 8.2zm47.4 0.6c-1.7-1.7 0.9 5.6 0 0zM92.1 664.2c5.4-9.5-12.5 7.7 0 0zm121.9-2.9c-3-10.1-1 9.8 0 0zm125.7 0.8c-1.7-1.7 0.9 5.6 0 0zm-133-5.1c-1.8 1 1.6 5.5 0 0zm-83.5-2c-3.1-2.4 3 5.4 0 0zm8.1-0.7c21.7-9.3-20.2 3.9 0 0zm78-1.2c9-15.8 0.9-19.5-2.8-3-0.7 2-1 9.4 2.8 3zm4.8-1.9c-3.5-1.7-1.7 4.7 0 0zm4.3-3.7c-3.3-2-1.5 10.9 0 0zm79.8-7.3c-2.3-9.5-33.4 7.6-2.6 1.2l2.6-1.2 0 0zm-21.1-1.7c-4.5-6.7-12 4.7 0 0zm17.2-8.2c18.5-15.1-42.9-2.2-10.2 2l3.9-0.7 6.3-1.3 0 0zm2.8-10.6c2.4-11.9-40.7 3.5-11.4 1.2 3.8-0.3 7.6-0.4 11.4-1.2zm42-2c2.1-9.2-6.8 4.5 0 0zm-57.7-6.1c16.5-6.2-31.3-4.1-6.4 0.7l6.4-0.7 0 0zm44.4-8.5c-2.3-0.6-0.6 6.2 0 0zm58.2-38.9c-2.5-3.6-1.2 3.7 0 0zm-32.3-3.2c-1.7-1.7 0.9 5.6 0 0zm22.8-4.6c-1.1-8.8-3.9 9.9 0 0zm24.5-14.2c-2.6-3.6-2.6 3.6 0 0zm-40-3.6c-1.5-3.8-2.6 5.1 0 0zm14.5-11c18.9-5.5 18.5-15 16.8-36.4-0.2-11.8 1.2-62.3-7.3-26.8-12.4 24.8-7.2 39.8-15.8 67.5l0.8 0.1 5.6-4.3 0 0zm-177.4 0.4c-3.6-2.1 2.5 5.2 0 0zm251.4-4.6c-4.9 1.4-0.1 6.8 0 0zm-246.4-6.6c-8.8-15.1 2.8 16.9 0 0zm193.3 1.6c-2.6-4.3-3 5.8 0 0zm3.9-2.7c-4-3.6-0.4 5.1 0 0zm-29.7-2.8c-1.8 1 1.6 5.5 0 0zm34 0.8c-5.6-6.1 1.6 6.7 0 0zm-6.7-0.5c-1.2-3.7-2.5 3.6 0 0zm75-3.5c-2.9-7.8-2.4 7.7 0 0zm-12-2.4c14.3-14 14.9-26.1 2.7-6.8 1.5-5.8-7.5 11.7-2.7 6.8zm11-5.1c-1.2-3.7-2.5 3.6 0 0zm11.7-2.2c-1.7-1.7 0.9 5.6 0 0zm-108.7-1.4c-6.8-5.8-3.5 5.9 0 0zm103-2.7c-0.7-10.3-5.7 14.3 0 0zm-267-3c-2.4-18.4-4 22.8 0 0zm275.4 0.7c-5-8.9 0.7 16.6 0 0zm-116.6 0.7c-4.7-9.3-6.4 14 0 0zm-170-2.3c-4.7-11.9 2.9 18.4 0 0zm6-0.8c-0.7-12.3-3 20 0 0zm277.1-1.6c-7.4-7.2-2.1 11.9 0 0zm-12-3.9c-1.9-6.4-2 6.6 0 0zm-262-11.7c-7.5 2.4-0.7 17.2 0 0zm277 6.3c-2-5.4-2.7 3.5 0 0zM400.4 462.5c-0.6-33.4-4.4 4.6-2.1 17.3 3.2-3.6 1-12.4 2.1-17.3zm76.3 14.3c-3.2-13.5-5.8-30.5-3.4-6.3 0.2-0.5 1.2 11.7 3.4 6.3zm-9.6-0.5c-2.6-3.6-2.6 3.6 0 0zm0.5-11.5c-6.1-19.1-12-63-19-64.7 6.1 25.4 8.3 51.8 21.3 73.9l-0.5-3.3-1.7-5.9 0 0zm-62-10.2c-1.3-25.6-6.8 18.5-1.4 11.8l0.7-4.9 0.7-6.9 0 0zm-193.1 8.1c7.2-12.6-24.7 3.5-2.7 4.6l2.8-4.6 0 0zm150.7-7.2c-14.4-19.6 7.1 27.7 0 0zm34.9 7.9c-2.5-3.6-1.2 3.7 0 0zm-207.3-8.7c-1.7-1.2 1.2 8.2 0 0zm278.5-6.5c-3.5 6.7 1.2 11.7 0 0zm-276.6-1.5c-4.2-7.6 2 14.5 0 0zm159.9 0.7c-10.8-9.1 9.2 12.4 0 0zM237 433.2c8.5-17.8-28.1 23.2-4.7 5.5l2.3-2.6 2.4-2.9zm154 11.6c13.9-18.8-20.6-19.4-6-6.1 1.4 2.8 0.1 11.1 6 6.1zm11.2-4.6c20.5-26.3-11.1 5.9 0 0zm50.9-8.9c-1.8-16.9-6.4-23.9-1.8-2-0.3 2.1 4.8 13.3 1.8 2zm-47-0.9c5.6-12.7-6.3 4.9 0 0zm10.2-0.8c30.7-36.8-19.9 5.5 0 0zm-33.2-4.2c-2-5.4-2.7 3.5 0 0zm-7.8-4.3c6.2-20.1-18.4-39.8-12.8-48.4-14-17.4 4 15.2-13.9-4.8-20.3-10.4-9.1 5.2-1.9 2.1 12.7 8.1 19 17.8 21 39.2-3.4 1 7.7 21.4 7.6 11.9zm84.1-9.9c-12.1-24.3 11 32.4 0 0zm-210.6 7.9c1.3-12-16.8 8.3 0 0zm91.3 1.2c-4.3-6.3-4.8 7 0 0zm8.4-1.5c1.2-7-4.4 6 0 0zm-85.4-2.5c-10.6-2.4-17.6 7.2 0 0zm115 2.2c-1.2-3.7-2.5 3.6 0 0zm-98-6.2c-15.6-5.4-25.9 5.3 0 0zm50-10.8c-2.5-3.6-1.2 3.7 0 0zm102.6-6.7c6.5-17.9-9.1-28.6-1.5-4.3 0.6 3.8-5.1 19.6 1.5 4.3zm-4.2 0.3c6.3-9.8-11.3 0.3 0 0l0 0zm-155.5-7.3c8-19.3-5.4-18.5-1.9-0.8-2.3 2.6 5.5 16.2 1.9 0.8zm21.2 3.3c13.8-11-17.1 1.6 0 0l0 0zm-9.8 0.5c-2.2-15.2-5.7 6.4 0 0zm160.7-3.1c-4.5-6 1.3 7 0 0zm-41.7-0.3c-2.9-7.4-0.8-9.6 6-2.5 12.7 1.9-5.5-23.4 0.3-9.7-4.8-1.2-26.3 5.3-6.3 12.2zm-110.2-4c-1.8-3.3-4.9 2.2 0 0zm111-2.6c-1.2-3.7-2.5 3.6 0 0zm0.4-12.3c0-22.8-3.1-11.4-19-19.4 0 6.3 16.4 34.4 14.1 14.1 8.3-2.3-3.7 21.6 4.9 5.2zm-8.3-0.2c0.8-5.6 3.5-1.4 0 0zm-6.4-11c0.9-5.3 2.4 5.2 0 0zm-108.4 8.3c-4.6-1.9 2 7.6 0 0zm127.8 0.5c-1.7-3.3-4.1 6.9 0 0zm23.9-4.1c-3.1-15.2-11 0.9 0 0zm-83.1-0.5c-14.3-13-9.6 1.8 0 0zm-19.2-2c-18.9-16-6.4-2.8-12.3-5.7-31.8-10.5 3.9 10.1 12.3 5.7zm94.5-1.1c-2.2-24.9-15.9-19.4 0 0l0 0zm-90-3c5.1 3 5.4-13.8-6.1-9.3-18.3-5.8 5.2 15.6 6.1 9.3zm-4-1.7c-5.4-7.2 8.9 7.4 0 0zm99.4-2.4c-5.7-6.8 0.1 9.4 0 0zm-5.4 0.4c-2-5.4-2.7 3.5 0 0zm-129-5.1c-8.8-3.5 1.7 3.4 0 0zm130.9-5.6c-4.9-7.8 3.3 13.5 0 0zm-22.9 2.9c-7.5-11.3-20.7-3.1 0 0zm16.9-11.3c-5.7-12.7-14.2-6.3-13.5-8.4-8.5-18.7-18.2-8.3-10.6-5.1 1.1 9.1 4.5 18.1-5.4 10.9-2.4 13.6 11.7-2.1 9 8 12.8-4.6-11.4-34.2 8.6-8.5 12.1 7.3-4.6 2 12.9 12 2 1.7-0.3-9.1-1.2-8.9zm-84.8 5.7c-9.6-2.6 4.7 5.5 0 0zm58.4-14.7c3.9-6-12.4 10.9 0 0zm-17.1-11.4c-4.4-6 1.2 7 0 0zm8.6-0.6c-2.6-3.6-2.6 3.6 0 0zm-38.9-2.2c3.1-13.6-7.3 4.5 0 0zm24.9-2.8c-4.4-3.8-2.2 5.1 0 0zm5 1.6c-2.3-3.4-2.9 1.9 0 0zm3.5-0.6c-1.2-3.7-2.5 3.6 0 0zm-28.1-8.9c-4-5.4-4.9 3.5 0 0zm-88.9 709.9c1.4-4 5.4 4.3 0 0zm283.5-4c2.9-9.9 0.3-13.7-0.4-20.8 1.6-8.7-2.6-25.2 1.4-34.2-8.7-15.8 2.9-43.1-2.8-48.4-3.9-11.2 5.5-35.6 2.2-23.3 5.7 4.6-4.3 15.2 3.6 9-6.9 19.5 2.6 10.5 2.3-10.2 4.8 2.1 5.8 33 5.6 49.7 0.1 27.7 0.1 55.5 0.1 83.2-4.5-0.3-13.6 1.1-12-5zm7-4.9c-1.2-3.7-2.5 3.6 0 0zm0-4.5c-0.9-5.3-2.4 5.2 0 0zm-4-20.5c-3-8-4.1 2.1 0 0zm-0.1-28.6c-5.3-2.8 2.1 5.8 0 0zm1.1-14.1c-4.6-12.8-3.5 4.5 0 0zm-1-13.2c0-7.3-4.3-13.2-0.9 1l0.9-1zm4.7-30.2c-1.7-1.7 0.9 5.6 0 0zM269.7 1005.7c-0.1-6.3 8.7 5.9 0 0zm16.6-8.2c-3.8-8.4 15-2.9 0 0zM72.7 996.6c-3.6-12.4 3.2-1.7 0 0zm206.3-1.3c5.2-3.9 3.1 3 0 0zm20.7-1.6c-3.5-3.5 15.2-9.9 0 0zm4.7-9c9.2-24.4 7.5 5.1 0 0zm-19.8-6c-3.5-19.6 6.2 4.7 0 0zm-6.3-8.9c2.2-26.4 1.7 24.4 0 0zm10 5.7c-9.5-15.8 8.9 2.5 0 0zm-21.7-14.1c6.6-8.4 8-1.9 0 0zm13.3-5.1c2.3-3.5 3.6 3.8 0 0zm26.4-1.5c-3.4-10.9-7.8-26.7-15.7-17.1 5.4 3.4-31.4 4.4-13.2-3.9 7.2 7.2 40.8-11.1 35.5-2.1-26-0.8 4.3 26.2-6.5 23.1zm-6.7-21.2c-9-1.7-1.6 1.7 0 0zm10.7-3.3c-2.4-4.4-8.5 5.1 0 0zm-46.2 21.3c-1-6.6 9.8 3 0 0zm49-1.1c-3.5-8.5 6.8 6.2 0 0zm-191.7-1c-3.1-6.6-12.5-28.7 0-7.6 1.7-2 2.9 14.9 0 7.6zm184.4-1.8c-7.6-16.4 9.3 4.9 0 0l0 0zm-31-4.4c2.1-5.4 1.4 3.5 0 0zM71.1 932.7c0.6-3.9 1 4.6 0 0zm47.9-0.5c2.9-1.9 2.3 3.4 0 0zm-5.3-4.6c6.2-20.9 0.4 5.7 10.2-14.5-1.9 4.7-4.4 13.5-10.2 14.5zm-3.6-7.7c-3.3-13.6 5.5 4.6 0 0zm348.9-21.3c-17.5-11.6-13-11.4 2.5-2 16.4 5.3 28.2-31.7 16.1-0.4-2.9 4.8-13.9 4-18.5 2.4zm-144-0.3c8.1-19.2 15.6-14.8 0 0zm120.1-10.4c-16.1-2.2-35.7-55.8-17-20.2-1.6 6.7 37.7 24.6 17 20.2zm48.6-12.5c4.1-13 19.4-41.7 7.9-11.1-0.4 1.6-8.7 20.2-7.9 11.1zm64.4-2.8c1.4-6.1 2.4 8.1 0 0zm2-3.7c-3.6-8.5 0-5.7-1.3-16 4.3-0.1 2 23.4 1.3 16zm3.1 0.7c0.6-3.9 1 4.6 0 0zm-6.9-0.5c3.4-3.9 3.4 3.9 0 0zm5.8-14.9c2.6-3.6 2.6 3.6 0 0zm0-3c-9.3-16.7-3.9-35.1-7.5-57 3.8-5.2 5.1 19.7 4.3 25-0.8 4.6 7.4 20.6 2.4 20.4-2.6 1.3 4.6 14.3 0.8 11.6zM402 837.2c-5-10.7-26.1-59.8-19.9-50.4 7.1 16.8 24.1 52.3 24 58.2l-1.9-3.5-2.2-4.3 0 0zm85.1-1.6c2.4-11.4-34.4-52.9-19.4-39.5 11 3 24.3 31.5 20.7 44.5l-1.2-5 0 0zm-263.6-1.3c1.5-3.8 3.1 3.2 0 0zm15.5 0c2.6-3.6 2.6 3.6 0 0zm58.7-1.4c-1.3-9.3 3.2 5.7 0 0zm198.3-1.8c0.3-5.1 5.2-10.1 2 0.9l-2-0.9zm-183.9-4.4c0.6-3.9 1 4.6 0 0zm10.4 0.6c1.2-3.7 2.5 3.6 0 0zm-0.1-3.6c2.1-7.5 1.9 5.4 0 0zm-15.4-0.9c0.9-5.3 2.4 5.2 0 0zm6-1.3c5.8-3.7 11.7 0 1.8 0.8l-1.7-0.8zm-13.4-1.8c-1.9-9.1 5.4 6.5 0 0zm3.6 0.4c-6.1-8.3 8.2-0.9 0 0zm6.8 0.3c3.5-7.1 2.9 1.4 0 0zm186-0.6c1-11.7 2.9 6.6 0 0zm-188.7-3c-1.8-7.7 6.1 5.9 0 0zm7.2 0.5c1.2-3.9 3.6 3.8 0 0zm234.5 0c2.6-3.6 2.6 3.6 0 0zm-226.5-1c1.2-3.7 2.5 3.6 0 0zm-3.5-3c2.6-3.6 2.6 3.6 0 0zm176-0.5c2.5-5.3 2.5 5.3 0 0zm-170.4-1c-18.3-6.7 8.7-16.9 1.6 1.5l-1.6-1.5 0 0zm36.7-3.7c9.7-13.3 5.8 3.5 0 0zm132.8-0.8c0.9-4.5 0.9 4.5 0 0zm-125.4-1c9-7.3 4.6 5.3 0 0l0 0zm123.8-3c1.2-3.9 3.6 3.8 0 0zm-131.5-0.9c1.7-4.7 3.5 1.7 0 0zm15-2c-17-3.6 14.4-1.4 0 0zm-17.5-1.2c1.2-3.7 2.5 3.6 0 0zm-61.5-2.7c0.9-6.5 3.9-0.1 0 0zm170.9-4.1c-3.1-4.5 5.6 5.3 0 0zm18.1-3.7c-2.1-5.2 6.5 4.9 0 0zm-27.5-0.5c0.7-2.3 4.2 3.7 0 0zm85.5-7.6c2.3-22.5 2.2 24.7 0 0zm-60 3.6c3.9-3.7 3.9 3.7 0 0zm-28.9-1.6c0.6-3.9 1 4.6 0 0zm28.1-2.6c-4.2-8.5 5.2 2.3 0 0zm-36.7-7.1c-10.8-10.5-39.2-45.7-12.3-16.5 4.4 4.2 30.8 35.9 12.3 16.5zm-70.4 1c-8.2-18.7 9.5 14 0 0zm103.2-0.9c-12.1-20.6-13.7-62.7-45.7-38.5-6.6 1.5-22.3-3.9-12.7-13.4-2.6-3.8-22 2.2-3.5 11.8 25.6 24.8-15.7-3.6-7.2-5.8-13.4-5.4-21.6-58.7-12.7-22.8 1.1 12.7 17.4 18.6 8.5 8.4-8.3-8-9.2-19.4 1-33.9 1.7-22 22.9 11.6 3.3 8.1-4.3 15.5 27.2 8.4 25.8 26.8 3.5 0.8 38.5-1 17.4 2.4 18.9 4.5-47.8 21.4-7 10.9 11.8-7.9 57.7-2.3 23.1-2.5-16.4 4 13.6 43 11.1 7.8 5 17.6-12.7 23.8 0.7 42.7l-2.1-2.1 0 0zm-45.3-57.7c-2.6-3.6-2.6 3.6 0 0zm110.7 51.3c2-17.5 0.8 16.8 0 0zm-172.6-3.2c-4-15.7 6.6 13.6 0 0zm174.3-17.1c1.2-3.7 2.5 3.6 0 0zm-2.3-3c0.9-4.5 0.9 4.5 0 0zm-5.1-5.6c0.6-3.9 1 4.6 0 0zm3.9-3.5c0.8-16.7 2.3 16.5 0 0zm4.5 2.2c1.3-6.5 2.6 4.3 0 0zm-63.5-2.6c2.5-5.3 2.5 5.3 0 0zm54-3.5c2.6-3.6 2.6 3.6 0 0zm9-1c2.6-3.6 2.6 3.6 0 0zm-351.4-0.8c-0.3-6.9 4.1 2.9 0 0zm-3.7-0.4c-4.2-16.3 4.9-1 0 0zm346.1-4.8c0.6-17.2 1.8 16.5 0 0zm4.2-12c-1.1-16.1-1.7-52.3-3-15.3 0.8 17.7-2 26.2-3.6 4.1-0.1-37.2-2.7-76.1 4.5-112.1-1.7-38.7 18.3-79.2 10.3-118.7 5.6-18.1-9.6-58.4 1.7-66.1 9.7 34.9-3.7-60.7 6.1-13.2 2.2 10.2-1.5 62.2 4.7 31.3 5.1-37.2-0.8 22.2-1 33.5 1.8 34.2 4.3 69.2-7.6 102.1-9 38.4-5.4 78.3-6.1 117.4-0.5 16.5-4.3 19.4-4.2 42.2-0.6 26.6-0.7 3.6-1.7-5.1zm3.4-131.2c-1.7-1.7 0.9 5.6 0 0zm0.9-6.1c7.4-24.2-10.1 1.3-0.8 2.9l0.8-2.9 0 0zm0.4-18.2c-1.4-6.1-2.4 8.1 0 0zm0 168.3c0.8-5.2 2.9 7.3 0 0zm-64.7-5c-5.4-13-30.6-40.7-34.1-35.9 2.1 7.9-18-7.8-1.8-6.5 4.8-8.4 27 29.1 37.1 37.4 1.4 9.9-0.5 6.4-1.2 4.9zm-292.3-0.8c2.6-3.6 2.6 3.6 0 0zm22-1c2.6-3.6 2.6 3.6 0 0zm3.6 0.1c-0.8-5.9 3 2.6 0 0l0 0zm-12.6-2.7c2.8-4 3.1 5.2 0 0zm4-0.9c-2.4-7.8 6.9 6.1 0 0zm340-1c1.4-6.1 2.4 8.1 0 0zm-108.6-4c1.6-2.2 5-3.8 20.1-2.4-5.9 3.3-13.6 4.5-20.1 2.4zm29.1-7.1c-16.7-6.7-17.5-10 0.1-2.3 2.3-0.3 1.6 7.2-0.1 2.3zm-9.4-1.3c-2.5-3.9 7.3 4.2 0 0zm-6.5-2c-8.3-3 13.2 2.6 0 0zm94.5 0.1c2-5.4 2.7 3.5 0 0zm-108.5-1.1c9.9-7.6 11.1 4.5 0 0zm-44.1-12.6c-14.1-13 5.7-6.7 1.6 3.5l-1.6-3.5zm-7.7-12.1c-3.7-19.8-1.4-42-2.3-46.8 2.4-17.6-8.3 2.4-4.5-17 7.8 10-5.7-15.9-9.2 1.5 0.8-17-10.5-31.7-2.7-7 0 9.9-5.6-0.2-6-0.9-10-43 30.2 6.1 27.5 25.2-4.7 12.9 2.1 35.1-2.8 45zM65.8 671.6c0.3-51.6 1.6-103.1-0.8-154.7 2.1-21.4-6.5-57.6 5.2-67-1.3-6-6.3 39.2-0.6 34.5 8.7 3.9 6 46.2 6.3 64-4.7 40.9-2.8 82.6-10.1 123.2zm377.8-5.4c-20.8-23.5 1.5-9 0 0zm-24.2-2.9c-7.5-5 9.3 3.2 0 0zm4.8-3c-14.2-7.1 8.7 1.9 0 0zm0.5-9.6c-13.9-2.7-20.3-0.3-13.7-4.4-40.5-7.1 16.7-5.2 22.8 3.7-8.6-1-15.1-3.6-3.7 2.1l-5.4-1.5zM71.6 639.3c1.2-3.7 2.5 3.6 0 0zm319.3-51.2c3.9-20.5 5.3 16.2 0 0zm-110.8 0.3c5.2-3.7 5.2 3.7 0 0zm-12.2-11c-35.5-11.4 47.1-15.6 23.9-2.5-6.5 6-16.1 5.5-23.9 2.5zm22.1-4c-7.4-7.9-32.5 3.3-6 1.2l6-1.2 0 0zm194.4-9.3c-7.9-6.7-6.6-46.5-3.7-20.1 0.2-41.3 11.9 44.1 3.7 20.1zm1-6c-4.5-14.7 1.3 17.2 0 0zm6.8-1.8c-2.1-3.2-3.4-43.4 0.3-11.9-0.1 2.4 5.6 23.8-0.3 11.9zm-25.2-0.8c-3-38.1 0.1-10.7 2.1-18.7 3.3-16.4 0.2 30.7-2.1 18.8zM270.1 553.3c-23.4-12.9 14.2 3.1 20.5-8 18.2 3.8-9.9 5.6-14.6 9.8l-5.8-1.8 0 0zm21.8-1.7c5.6-0.9-1.7 1.7 0 0zm-17.9-5.8c-12.3-18.2 18.5 7.4 0 0zm15.2-4.9c0.2-8.6 8.4 2.2 0 0zm67.2-11.4c5.9-20.3 0.3 10.6 0 0zm-95.3-0.2c2.5-3.6 1.2 3.7 0 0zm219-0.9c-3.7-15 5.9 6.6 0 0zm16.5-6.2c1.1-11.6 3 8.1 0 0zm-244-4.1c6.6-19.4-26.3-4.8-23.6-18.4 9.8-9.7 43.9 6.9 14.2-6.4 16.4-5.2-10.5-1.7-20.8-4.3 21.9-16.7 60.8 0.2 43.2 26.3-6.8-0.3 7.3 16.7-13 2.8zm0.6-7.8c-2.6-3.6-2.6 3.6 0 0zm7-5.2c-4 0-2.6 4.1 0 0zm-5 0.8c-11.2-10-10.7 0.9 0 0zm4-3.6c-2.5-3.6-1.2 3.7 0 0zm1.5-9c-11.1-4.3-4.1 3.8 0 0zm99.5 25.1c3.1-7.1 1.7 5.8 0 0zm-55.5-12.1c-20.9-10.8 38.1-11.7 16.9-2.6 9.3 4.8-15.1 5.9-16.9 2.6zm5.5-3.6c-5.7-5.9-6.8 6.9 0 0zm-14-6.4c10.4-4.6 26.9-11.4 4.7-5-14.8-24.6 69.7 1.5 26.7-3.9-12.4-4.1-22.7 14.5-31.5 9zm30.5 0.2c-9.6-9.7 12.9-4.4 0 0zm10.3-2c-2.2-6.9 9.4 0.7 0 0zm-5.3-3.3c1.2-3.9 3.6 3.8 0 0zm-43.5-2.5c5.5-5.7 4.6 3.1 0 0zm70.8-2.1c-3.7-7.1 3.7-4.7 0 0zM72.7 482.6c-5.4-15.2 1.1-12.9 0 0zM355.1 469.7c0.6-3.9 1 4.6 0 0zM70.1 467.8c2.5-5.3 2.5 5.3 0 0zm-1.3-4.2c-3.1-5 4 1 0 0zm-3.4-12c-3.7-12 2.1-24.8 2-4.6 3.3-8 0.8 7.4-2 4.6zm2.5-14.1c-0.5-9.3 3.3-0.3 0 0zm2.3-6.8c1.5-3.8 2.6 5.1 0 0zm-2.7-1.2c-3.6-14.2 4.1 1.9 0 0zm2.9-3.3c2.6-16.9 1.9 3 0 0zm-4.7-4c1.7-5.7 6.1 3.3 0 0zm1.7-6.2c2.2-2 3.6-20.1-5-23.9-13.3-4.5 14.7 1.9 6.8-16.2 3-0.1 0.2 26 15.5 12.2 34.6 0.2 69.3-1.4 103.8 0.6-21 13.3-54.2 2.8-79.5 4.9-21-3.3-42.9-5.8-39.9 23.5l-1.7-1.1 0 0zm-1-6c4.8-5.5 1.9 3.2 0 0zM551.1 395.7c0.6-3.9 1 4.6 0 0zm-92.6-7.3c10.1-1.4 43.4-9.1 33.5-4.3 15.4 6.5-29 3.4-33.5 4.3zm41.9-2.6c14.2-4.1-9.8 5.3 0 0zm12.1 0.2c13.6-4 35.7-5 8.1 0.2 1.4-1.2-15.3 3-8.1-0.2zm-6-0.7c4.2-3.5 1 3.5 0 0zm-408.5-1c9-2.9 6.4 1.5-0.8 0.8l0.8-0.8zm11-2c3.6-3.8 2.3 3.5 0 0zm389.8 0.3c5.5-1.6 1 1.8 0 0zm15.3-0.3c-6.4-3.2 9.4 2.6 0 0zm27.8-0.7c-5.8-4.7 11.3 0 0 0zm-34.9-2c5.6-0.9-1.7 1.7 0 0zm16.2 0.3c3.9-3.3 4 1.8 0 0zm27-2.6c2.5-3.6 1.2 3.7 0 0zm-480.7-9c0.8-8 0.8 8 0 0zm484.7 1.6c-3.1-15.3 4.8 8.2 0 0zM342.7 301.8c0.5-3.9 4.1 4.7 0 0zm1.3-14.6c-2.5-3.9 7.3 4.2 0 0z" fill="#0a8"/></g></svg>
